<svg width="48" height="48" viewBox="0 0 48 48" fill="none" xmlns="http://www.w3.org/2000/svg">
<g clip-path="url(#clip0_912_21)">
<path d="M43.2964 0H4.70359C2.11067 0 0.00656245 2.09889 0 4.69297V43.307C0.00637495 45.9009 2.11067 48 4.70359 48H43.2964C45.8903 48 47.9934 45.9011 48 43.307V4.69297C47.9936 2.09908 45.8893 0 43.2964 0Z" fill="#6225C5"/>
<path d="M6.36914 15.1055V32.8334H11.3407C15.2781 32.8397 16.522 29.7863 16.522 27.7708L16.5209 20.1712C16.5197 18.1548 15.2427 15.1055 11.4457 15.1055H6.36914ZM20.5397 15.1087C19.3452 15.1387 18.399 16.1305 18.4281 17.3255V30.7303C18.4581 31.926 19.4522 32.871 20.6479 32.8397H27.3099V29.6719H21.6004V25.5562H25.0901V22.3882H21.6004V18.2716H27.3088L27.3099 15.1088L20.5397 15.1087ZM29.2021 15.1098L33.3305 30.6242C34.465 33.2631 36.9989 33.9186 38.4132 30.6242L42.534 15.1098H39.0434L35.8752 27.2942L32.6919 15.1098H29.2021ZM9.75293 18.4226H11.6213C12.037 18.4226 12.4538 18.5778 12.8697 18.8885C13.2843 19.1992 13.4933 19.6666 13.4943 20.2878V27.7504C13.4943 28.3729 13.2863 28.839 12.8707 29.1499C12.455 29.4606 12.0383 29.6158 11.6227 29.6158L9.75293 29.616V18.4226Z" fill="white"/>
</g>
<defs>
<clipPath id="clip0_912_21">
<rect width="48" height="48" fill="white"/>
</clipPath>
</defs>
</svg>
